<svg width="344" height="68" viewBox="0 0 344 68" fill="none" xmlns="http://www.w3.org/2000/svg">
<path d="M97.48 49V25.28H88.4V20.2H112V25.28H102.92V49H97.48ZM125.214 49.6C123.401 49.6 121.674 49.28 120.034 48.64C118.394 47.9867 116.941 47.0267 115.674 45.76C114.421 44.4933 113.427 42.9267 112.694 41.06C111.974 39.1933 111.614 37.04 111.614 34.6C111.614 31.4133 112.221 28.7067 113.434 26.48C114.661 24.24 116.301 22.5333 118.354 21.36C120.421 20.1867 122.707 19.6 125.214 19.6C128.921 19.6 131.834 20.46 133.954 22.18C136.074 23.9 137.494 26.3333 138.214 29.48L132.654 30.28C132.134 28.6 131.281 27.26 130.094 26.26C128.921 25.2467 127.414 24.7333 125.574 24.72C123.747 24.6933 122.227 25.0867 121.014 25.9C119.801 26.7133 118.887 27.8667 118.274 29.36C117.674 30.8533 117.374 32.6 117.374 34.6C117.374 36.6 117.674 38.3333 118.274 39.8C118.887 41.2667 119.801 42.4067 121.014 43.22C122.227 44.0333 123.747 44.4533 125.574 44.48C126.814 44.5067 127.934 44.2933 128.934 43.84C129.947 43.3867 130.801 42.6733 131.494 41.7C132.187 40.7267 132.681 39.48 132.974 37.96H128.414V33.76H138.774C138.801 33.9333 138.821 34.24 138.834 34.68C138.847 35.12 138.854 35.3733 138.854 35.44C138.854 38.2 138.294 40.6467 137.174 42.78C136.054 44.9133 134.474 46.5867 132.434 47.8C130.394 49 127.987 49.6 125.214 49.6ZM141.263 49V20.2H146.703V43.92H159.103V49H141.263ZM181.407 49.6C179.273 49.6 177.347 49.2267 175.627 48.48C173.92 47.72 172.513 46.64 171.407 45.24C170.313 43.8267 169.62 42.1467 169.327 40.2L175.007 39.36C175.407 41.0133 176.233 42.2867 177.487 43.18C178.74 44.0733 180.167 44.52 181.767 44.52C182.66 44.52 183.527 44.38 184.367 44.1C185.207 43.82 185.893 43.4067 186.427 42.86C186.973 42.3133 187.247 41.64 187.247 40.84C187.247 40.5467 187.2 40.2667 187.107 40C187.027 39.72 186.887 39.46 186.687 39.22C186.487 38.98 186.2 38.7533 185.827 38.54C185.467 38.3267 185.007 38.1333 184.447 37.96L176.967 35.76C176.407 35.6 175.753 35.3733 175.007 35.08C174.273 34.7867 173.56 34.3667 172.867 33.82C172.173 33.2733 171.593 32.5533 171.127 31.66C170.673 30.7533 170.447 29.6133 170.447 28.24C170.447 26.3067 170.933 24.7 171.907 23.42C172.88 22.14 174.18 21.1867 175.807 20.56C177.433 19.9333 179.233 19.6267 181.207 19.64C183.193 19.6667 184.967 20.0067 186.527 20.66C188.087 21.3133 189.393 22.2667 190.447 23.52C191.5 24.76 192.26 26.28 192.727 28.08L186.847 29.08C186.633 28.1467 186.24 27.36 185.667 26.72C185.093 26.08 184.407 25.5933 183.607 25.26C182.82 24.9267 181.993 24.7467 181.127 24.72C180.273 24.6933 179.467 24.8133 178.707 25.08C177.96 25.3333 177.347 25.7067 176.867 26.2C176.4 26.6933 176.167 27.28 176.167 27.96C176.167 28.5867 176.36 29.1 176.747 29.5C177.133 29.8867 177.62 30.2 178.207 30.44C178.793 30.68 179.393 30.88 180.007 31.04L185.007 32.4C185.753 32.6 186.58 32.8667 187.487 33.2C188.393 33.52 189.26 33.9733 190.087 34.56C190.927 35.1333 191.613 35.8933 192.147 36.84C192.693 37.7867 192.967 38.9867 192.967 40.44C192.967 41.9867 192.64 43.34 191.987 44.5C191.347 45.6467 190.48 46.6 189.387 47.36C188.293 48.1067 187.053 48.6667 185.667 49.04C184.293 49.4133 182.873 49.6 181.407 49.6ZM205.083 49.6C202.909 49.6 201.003 49.1133 199.363 48.14C197.723 47.1667 196.443 45.8267 195.523 44.12C194.616 42.4 194.163 40.4267 194.163 38.2C194.163 35.9467 194.629 33.9667 195.563 32.26C196.496 30.54 197.783 29.2 199.423 28.24C201.063 27.28 202.949 26.8 205.083 26.8C207.256 26.8 209.163 27.2867 210.803 28.26C212.456 29.2333 213.743 30.58 214.663 32.3C215.583 34.0067 216.043 35.9733 216.043 38.2C216.043 40.44 215.576 42.42 214.643 44.14C213.723 45.8467 212.436 47.1867 210.783 48.16C209.143 49.12 207.243 49.6 205.083 49.6ZM205.083 44.52C206.829 44.52 208.129 43.9333 208.983 42.76C209.849 41.5733 210.283 40.0533 210.283 38.2C210.283 36.28 209.843 34.7467 208.963 33.6C208.096 32.4533 206.803 31.88 205.083 31.88C203.896 31.88 202.923 32.1467 202.163 32.68C201.403 33.2133 200.836 33.9533 200.463 34.9C200.103 35.8467 199.923 36.9467 199.923 38.2C199.923 40.1333 200.356 41.6733 201.223 42.82C202.103 43.9533 203.389 44.52 205.083 44.52ZM218.841 49V19.6H224.281V49H218.841ZM236.317 49.64C234.623 49.64 233.243 49.3533 232.177 48.78C231.11 48.2067 230.277 47.48 229.677 46.6C229.09 45.72 228.67 44.8067 228.417 43.86C228.163 42.9 228.01 42.0267 227.957 41.24C227.903 40.4533 227.877 39.88 227.877 39.52V27.4H233.397V37.6C233.397 38.0933 233.423 38.7267 233.477 39.5C233.53 40.26 233.697 41.0267 233.977 41.8C234.257 42.5733 234.71 43.22 235.337 43.74C235.977 44.26 236.877 44.52 238.037 44.52C238.503 44.52 239.003 44.4467 239.537 44.3C240.07 44.1533 240.57 43.8733 241.037 43.46C241.503 43.0333 241.883 42.4133 242.177 41.6C242.483 40.7733 242.637 39.6933 242.637 38.36L245.757 39.84C245.757 41.5467 245.41 43.1467 244.717 44.64C244.023 46.1333 242.977 47.34 241.577 48.26C240.19 49.18 238.437 49.64 236.317 49.64ZM243.317 49V41.84H242.637V27.4H248.117V49H243.317ZM264.666 49C263.173 49.28 261.706 49.4 260.266 49.36C258.84 49.3333 257.56 49.0867 256.426 48.62C255.306 48.14 254.453 47.3733 253.866 46.32C253.333 45.3333 253.053 44.3333 253.026 43.32C253 42.2933 252.986 41.1333 252.986 39.84V21.4H258.426V39.52C258.426 40.36 258.433 41.12 258.446 41.8C258.473 42.4667 258.613 43 258.866 43.4C259.346 44.16 260.113 44.5733 261.166 44.64C262.22 44.7067 263.386 44.6533 264.666 44.48V49ZM249.306 31.6V27.4H264.666V31.6H249.306ZM267.88 24.4V19.6H273.32V24.4H267.88ZM267.88 49V27.4H273.32V49H267.88ZM287.036 49.6C284.862 49.6 282.956 49.1133 281.316 48.14C279.676 47.1667 278.396 45.8267 277.476 44.12C276.569 42.4 276.116 40.4267 276.116 38.2C276.116 35.9467 276.582 33.9667 277.516 32.26C278.449 30.54 279.736 29.2 281.376 28.24C283.016 27.28 284.902 26.8 287.036 26.8C289.209 26.8 291.116 27.2867 292.756 28.26C294.409 29.2333 295.696 30.58 296.616 32.3C297.536 34.0067 297.996 35.9733 297.996 38.2C297.996 40.44 297.529 42.42 296.596 44.14C295.676 45.8467 294.389 47.1867 292.736 48.16C291.096 49.12 289.196 49.6 287.036 49.6ZM287.036 44.52C288.782 44.52 290.082 43.9333 290.936 42.76C291.802 41.5733 292.236 40.0533 292.236 38.2C292.236 36.28 291.796 34.7467 290.916 33.6C290.049 32.4533 288.756 31.88 287.036 31.88C285.849 31.88 284.876 32.1467 284.116 32.68C283.356 33.2133 282.789 33.9533 282.416 34.9C282.056 35.8467 281.876 36.9467 281.876 38.2C281.876 40.1333 282.309 41.6733 283.176 42.82C284.056 43.9533 285.342 44.52 287.036 44.52ZM315.114 49V38.8C315.114 38.3067 315.087 37.68 315.034 36.92C314.98 36.1467 314.814 35.3733 314.534 34.6C314.254 33.8267 313.794 33.18 313.154 32.66C312.527 32.14 311.634 31.88 310.474 31.88C310.007 31.88 309.507 31.9533 308.974 32.1C308.44 32.2467 307.94 32.5333 307.474 32.96C307.007 33.3733 306.62 33.9867 306.314 34.8C306.02 35.6133 305.874 36.6933 305.874 38.04L302.754 36.56C302.754 34.8533 303.1 33.2533 303.794 31.76C304.487 30.2667 305.527 29.06 306.914 28.14C308.314 27.22 310.074 26.76 312.194 26.76C313.887 26.76 315.267 27.0467 316.334 27.62C317.4 28.1933 318.227 28.92 318.814 29.8C319.414 30.68 319.84 31.6 320.094 32.56C320.347 33.5067 320.5 34.3733 320.554 35.16C320.607 35.9467 320.634 36.52 320.634 36.88V49H315.114ZM300.354 49V27.4H305.194V34.56H305.874V49H300.354ZM332.263 49.6C329.543 49.6 327.343 48.9867 325.663 47.76C323.997 46.52 322.983 44.7733 322.623 42.52L328.183 41.68C328.41 42.6933 328.91 43.4867 329.683 44.06C330.47 44.6333 331.463 44.92 332.663 44.92C333.65 44.92 334.41 44.7333 334.943 44.36C335.477 43.9733 335.743 43.44 335.743 42.76C335.743 42.3333 335.637 41.9933 335.423 41.74C335.21 41.4733 334.73 41.2133 333.983 40.96C333.25 40.7067 332.103 40.3733 330.543 39.96C328.783 39.5067 327.377 39 326.323 38.44C325.27 37.88 324.51 37.2133 324.043 36.44C323.577 35.6533 323.343 34.7067 323.343 33.6C323.343 32.2133 323.697 31.0133 324.403 30C325.11 28.9733 326.103 28.1867 327.383 27.64C328.677 27.08 330.197 26.8 331.943 26.8C333.637 26.8 335.137 27.06 336.443 27.58C337.75 28.1 338.803 28.84 339.603 29.8C340.417 30.76 340.917 31.8933 341.103 33.2L335.543 34.2C335.45 33.4 335.103 32.7667 334.503 32.3C333.903 31.8333 333.09 31.56 332.063 31.48C331.063 31.4133 330.257 31.5467 329.643 31.88C329.043 32.2133 328.743 32.6933 328.743 33.32C328.743 33.6933 328.87 34.0067 329.123 34.26C329.39 34.5133 329.93 34.7733 330.743 35.04C331.57 35.3067 332.823 35.6533 334.503 36.08C336.143 36.5067 337.457 37.0067 338.443 37.58C339.443 38.14 340.17 38.82 340.623 39.62C341.077 40.4067 341.303 41.36 341.303 42.48C341.303 44.6933 340.503 46.4333 338.903 47.7C337.303 48.9667 335.09 49.6 332.263 49.6Z" fill="#0F6CBD"/>
<ellipse cx="65" cy="33.0818" rx="3" ry="9.18919" fill="#0F6CBD"/>
<path d="M31.5 33.5396C31.5 50.5411 27.9183 64.3234 23.5 64.3234C19.0817 64.3234 0 50.5411 0 33.5396C0 16.5382 19.0817 2.75586 23.5 2.75586C27.9183 2.75586 31.5 16.5382 31.5 33.5396Z" fill="#0F6CBD"/>
<path d="M33 33.5396C33 50.5411 29.4183 64.3234 25 64.3234C20.5817 64.3234 9.5 50.5411 9.5 33.5396C9.5 16.5382 20.5817 2.75586 25 2.75586C29.4183 2.75586 33 16.5382 33 33.5396Z" fill="#1A1B1F"/>
<ellipse cx="34" cy="34" rx="12" ry="34" fill="#0F6CBD"/>
<ellipse cx="38" cy="33.9993" rx="8" ry="23.8919" fill="#1A1B1F"/>
<ellipse cx="49" cy="34.0001" rx="11" ry="30.3243" fill="#0F6CBD"/>
<ellipse cx="52" cy="34.9184" rx="5" ry="17.4595" fill="#1A1B1F"/>
</svg>
